<svg width="1453" height="282" viewBox="0 0 1453 282" fill="none" xmlns="http://www.w3.org/2000/svg">
<path fill-rule="evenodd" clip-rule="evenodd" d="M231.485 240.829C229.613 240.159 227.764 239.46 225.937 238.729C222.493 237.36 219.848 234.848 218.624 231.773C217.397 228.701 217.692 225.33 219.441 222.448C221.497 219.04 223.703 215.402 225.452 212.52C227.273 209.517 231.429 208.144 235.141 209.316C235.144 209.316 235.144 209.316 235.144 209.316C244.814 212.372 255.262 214.329 266.204 214.975C268.854 215.133 271.534 215.211 274.239 215.211C285.326 215.211 295.995 213.869 305.966 211.39C306.147 211.345 306.331 211.3 306.512 211.254C328.867 205.591 347.672 194.211 359.763 179.466C361.478 177.373 363.059 175.211 364.496 172.989C368.306 167.094 371.1 160.77 372.713 154.144C373.758 149.836 374.305 145.4 374.305 140.869C374.305 134.609 373.262 128.529 371.296 122.717C368.247 113.705 362.978 105.34 355.953 97.9698C350.293 92.0345 343.491 86.7403 335.787 82.2661C330.178 79.01 324.092 76.1878 317.619 73.866C304.493 69.163 289.778 66.5267 274.239 66.5267C274.033 66.5267 273.827 66.5267 273.62 66.5291C266.014 66.5624 258.612 67.2299 251.497 68.4598C248.116 69.0438 244.8 69.7566 241.559 70.5885C236.636 71.859 231.295 70.71 227.666 67.597C225.201 65.5089 222.297 63.0179 219.486 60.608C216.663 58.1886 215.372 54.7561 216.016 51.3832C216.66 48.0102 219.165 45.1069 222.744 43.5813C222.746 43.5813 222.749 43.5814 222.752 43.579C228.442 41.1548 234.366 39.031 240.496 37.2408C242.502 36.6544 244.529 36.1038 246.577 35.5889C252.013 34.2159 255.934 30.1637 256.495 25.3415C257.014 20.9436 257.65 15.4778 258.199 10.7414C258.913 4.59869 264.993 -0.0613647 272.214 0.000610983C282.707 0.0911908 293.498 0.193723 304.426 0.303372C310.958 0.370115 316.559 4.3007 317.906 9.76171C319.236 15.1512 320.879 21.8184 322.104 26.7812C323.164 31.0766 326.901 34.5283 331.832 35.7606C338.389 37.4125 344.729 39.4552 350.818 41.8413C355.668 43.7769 361.389 43.1619 365.528 40.261C370.116 37.0788 376.16 32.8429 381.177 29.327C386.611 25.5202 394.51 25.7611 399.611 29.8896C404.81 34.0968 411.32 39.3694 416.407 43.4884C421.238 47.3976 422.164 53.681 418.619 58.4913C415.523 62.6961 411.811 67.7329 408.901 71.6802C406.015 75.599 406.045 80.588 408.977 84.4806C411.091 87.2671 413.041 90.1419 414.826 93.0881C416.304 95.5266 417.673 98.0175 418.926 100.551C420.803 104.358 424.855 107.061 429.633 107.695C440.215 109.109 450.158 110.425 459.279 111.633C466.042 112.529 471.046 117.487 471.088 123.337C471.135 129.921 471.197 138.457 471.244 144.981C471.286 150.694 466.578 155.629 460.021 156.744C452.016 158.105 441.442 159.905 434.135 161.147C429.022 162.017 424.906 165.252 423.461 169.533C421.829 174.353 419.76 179.034 417.316 183.561C415.054 187.677 415.74 192.538 419.085 196.075C423.801 201.119 430.634 208.358 435.861 213.888C440.207 218.489 439.947 225.115 435.256 229.461C430.933 233.463 425.672 238.33 421.511 242.183C417.277 246.099 410.516 247.138 404.952 244.724C396.537 241.072 384.313 235.768 376.213 232.254C371.399 230.166 365.608 230.641 361.344 233.473C359.364 234.974 357.166 236.197 354.834 237.229C350.572 239.043 347.711 242.612 347.267 246.664C346.355 253.283 345.259 263.361 344.408 271.185C343.708 277.618 337.14 282.402 329.595 281.973C319.139 281.377 304.92 280.569 295.515 280.033C289.574 279.697 284.54 276.174 282.98 271.263C280.903 264.701 278.819 257.962 276.736 251.071C276.736 251.071 276.468 250.189 276.454 250.142C276.451 250.142 276.451 250.142 276.448 250.142C276.153 250.12 276.758 250.163 276.454 250.142C260.55 249.028 245.408 245.803 231.485 240.829Z" fill="white"/>
<path fill-rule="evenodd" clip-rule="evenodd" d="M274.337 119.285C274.337 119.285 56.8496 119.285 31.0375 119.285C29.2963 119.285 27.5718 119.007 25.9526 118.46C21.414 116.82 11.7047 112.808 3.82242 105.755C0.0296163 102.341 -1.04889 97.325 1.07486 92.9748C3.19861 88.6245 8.12261 85.7649 13.6233 85.6864C77.3025 84.7736 262.415 82.1397 272.041 82.0018C272.335 81.9971 272.629 82.0018 272.923 82.0137C293.576 82.8647 312.426 87.864 327.353 95.6873C348.028 106.525 361.181 122.782 361.181 140.944C361.181 173.537 318.817 200 266.638 200C264.356 200 262.091 199.95 259.848 199.85C255.107 199.658 250.809 197.392 248.469 193.853C246.127 190.313 246.063 185.989 248.303 182.402C250.374 179.04 252.501 175.632 254.292 172.758C256.923 168.54 262.246 166.085 267.802 166.529C270.511 166.848 273.062 167.086 274.334 167.086C296.076 167.086 313.726 156.376 313.726 143.185C313.726 136.301 308.919 130.094 301.233 125.732C294.191 121.736 284.731 119.288 274.334 119.288L274.337 119.285Z" fill="white"/>
<path fill-rule="evenodd" clip-rule="evenodd" d="M94.1038 142C88.7928 141.991 83.9388 144.539 81.5842 148.566C79.2324 152.596 79.7925 157.406 83.0276 160.971C86.2181 164.484 89.2665 167.844 91.5821 170.393C94.2181 173.298 98.3031 175 102.633 175C124.362 174.998 191.534 174.993 214.581 174.993C219.457 174.993 223.98 172.835 226.501 169.303C228.368 166.691 230.692 163.437 233.078 160.101C235.677 156.463 235.761 151.924 233.298 148.22C230.834 144.516 226.206 142.222 221.182 142.212C187.995 142.158 129.083 142.057 94.1038 142Z" fill="white"/>
<path fill-rule="evenodd" clip-rule="evenodd" d="M132.403 187.002C127.33 187 122.668 189.374 120.261 193.181C117.857 196.988 118.096 201.613 120.889 205.222C121.807 206.409 122.679 207.535 123.473 208.562C126.015 211.847 130.316 213.831 134.934 213.842C148.068 213.88 175.391 213.96 189.182 214C194.313 214.014 199.027 211.601 201.42 207.732C202.093 206.647 202.821 205.472 203.574 204.252C205.829 200.609 205.683 196.229 203.188 192.701C200.695 189.174 196.218 187.019 191.387 187.016C174.092 187.012 150.338 187.007 132.403 187.002Z" fill="white"/>
<path d="M568.646 136.408H598.214L594.758 153.496H565.286L568.646 136.408ZM562.502 175H539.846L553.286 107.8H607.91L604.454 124.888H572.486L562.502 175ZM600.955 175L615.163 103.768H636.859L622.651 175H600.955ZM663.564 175.96C657.804 175.96 652.748 174.968 648.396 172.984C644.108 171 640.748 168.184 638.316 164.536C635.884 160.888 634.668 156.6 634.668 151.672C634.668 145.912 636.012 140.76 638.7 136.216C641.388 131.672 645.164 128.088 650.028 125.464C654.956 122.84 660.684 121.528 667.212 121.528C672.844 121.528 677.644 122.52 681.612 124.504C685.58 126.488 688.62 129.208 690.732 132.664C692.844 136.12 693.9 140.12 693.9 144.664C693.9 146.264 693.772 147.832 693.516 149.368C693.324 150.904 693.068 152.376 692.748 153.784H651.948L653.964 143.32H682.764L673.74 146.104C674.252 144.056 674.22 142.328 673.644 140.92C673.132 139.448 672.236 138.328 670.956 137.56C669.676 136.728 668.108 136.312 666.252 136.312C663.628 136.312 661.548 137.016 660.012 138.424C658.476 139.832 657.356 141.656 656.652 143.896C656.012 146.136 655.692 148.472 655.692 150.904C655.692 154.168 656.556 156.504 658.284 157.912C660.076 159.256 662.668 159.928 666.06 159.928C668.044 159.928 670.028 159.64 672.012 159.064C673.996 158.424 675.82 157.496 677.484 156.28L686.508 169.432C682.924 171.864 679.18 173.56 675.276 174.52C671.436 175.48 667.532 175.96 663.564 175.96ZM725.814 175.96C720.054 175.96 714.998 174.968 710.646 172.984C706.358 171 702.998 168.184 700.566 164.536C698.134 160.888 696.918 156.6 696.918 151.672C696.918 145.912 698.262 140.76 700.95 136.216C703.638 131.672 707.414 128.088 712.278 125.464C717.206 122.84 722.934 121.528 729.462 121.528C735.094 121.528 739.894 122.52 743.862 124.504C747.83 126.488 750.87 129.208 752.982 132.664C755.094 136.12 756.15 140.12 756.15 144.664C756.15 146.264 756.022 147.832 755.766 149.368C755.574 150.904 755.318 152.376 754.998 153.784H714.198L716.214 143.32H745.014L735.99 146.104C736.502 144.056 736.47 142.328 735.894 140.92C735.382 139.448 734.486 138.328 733.206 137.56C731.926 136.728 730.358 136.312 728.502 136.312C725.878 136.312 723.798 137.016 722.262 138.424C720.726 139.832 719.606 141.656 718.902 143.896C718.262 146.136 717.942 148.472 717.942 150.904C717.942 154.168 718.806 156.504 720.534 157.912C722.326 159.256 724.918 159.928 728.31 159.928C730.294 159.928 732.278 159.64 734.262 159.064C736.246 158.424 738.07 157.496 739.734 156.28L748.758 169.432C745.174 171.864 741.43 173.56 737.526 174.52C733.686 175.48 729.782 175.96 725.814 175.96ZM781.92 175.96C777.44 175.96 773.632 175.128 770.496 173.464C767.36 171.8 765.152 169.368 763.872 166.168C762.592 162.904 762.4 159 763.296 154.456L772.032 110.68H793.728L784.992 154.36C784.672 156.152 784.864 157.464 785.568 158.296C786.272 159.128 787.36 159.544 788.832 159.544C789.728 159.544 790.528 159.448 791.232 159.256C792 159 792.8 158.68 793.632 158.296L796.128 172.888C794.144 173.976 791.904 174.744 789.408 175.192C786.976 175.704 784.48 175.96 781.92 175.96ZM759.264 138.328L762.432 122.488H802.08L798.912 138.328H759.264ZM830.377 175L843.817 107.8H862.249L880.201 151.672H870.409L904.969 107.8H924.265L911.017 175H890.377L897.385 138.904L900.649 138.712L877.417 168.952H867.433L854.377 138.616L858.217 138.904L851.017 175H830.377ZM945.299 175.96C941.843 175.96 938.451 175.032 935.123 173.176C931.795 171.256 929.043 168.504 926.867 164.92C924.755 161.272 923.699 156.856 923.699 151.672C923.699 147.32 924.435 143.32 925.907 139.672C927.379 136.024 929.395 132.856 931.955 130.168C934.579 127.416 937.555 125.304 940.883 123.832C944.275 122.296 947.859 121.528 951.635 121.528C955.731 121.528 959.283 122.36 962.291 124.024C965.299 125.688 967.443 128.504 968.723 132.472C970.067 136.376 970.195 141.784 969.107 148.696C968.211 154.328 966.675 159.192 964.499 163.288C962.387 167.384 959.731 170.52 956.531 172.696C953.331 174.872 949.587 175.96 945.299 175.96ZM953.459 158.872C955.379 158.872 957.043 158.392 958.451 157.432C959.859 156.408 960.947 155 961.715 153.208C962.547 151.416 962.963 149.304 962.963 146.872C962.963 144.44 962.259 142.456 960.851 140.92C959.507 139.384 957.619 138.616 955.187 138.616C953.331 138.616 951.667 139.128 950.195 140.152C948.787 141.112 947.667 142.488 946.835 144.28C946.067 146.072 945.683 148.184 945.683 150.616C945.683 153.048 946.355 155.032 947.699 156.568C949.107 158.104 951.027 158.872 953.459 158.872ZM958.547 175L959.987 167.896L963.539 148.696L966.323 129.688L967.763 122.488H989.459L978.995 175H958.547ZM1034.12 121.528C1038.47 121.528 1042.18 122.456 1045.25 124.312C1048.39 126.104 1050.6 128.824 1051.88 132.472C1053.22 136.056 1053.35 140.568 1052.26 146.008L1046.5 175H1024.81L1030.09 148.6C1030.66 145.72 1030.53 143.544 1029.7 142.072C1028.87 140.536 1027.3 139.768 1025 139.768C1022.57 139.768 1020.52 140.6 1018.85 142.264C1017.19 143.864 1016.01 146.36 1015.3 149.752L1010.21 175H988.518L998.982 122.488H1019.43L1016.45 137.176L1013.96 133.144C1016.45 129.112 1019.53 126.168 1023.17 124.312C1026.89 122.456 1030.53 121.528 1034.12 121.528ZM1080.86 175.96C1077.41 175.96 1074.01 175.032 1070.69 173.176C1067.36 171.256 1064.61 168.504 1062.43 164.92C1060.32 161.272 1059.26 156.856 1059.26 151.672C1059.26 147.32 1060 143.32 1061.47 139.672C1062.94 136.024 1064.96 132.856 1067.52 130.168C1070.14 127.416 1073.12 125.304 1076.45 123.832C1079.84 122.296 1083.42 121.528 1087.2 121.528C1091.29 121.528 1094.85 122.36 1097.85 124.024C1100.86 125.688 1103.01 128.504 1104.29 132.472C1105.63 136.376 1105.76 141.784 1104.67 148.696C1103.77 154.328 1102.24 159.192 1100.06 163.288C1097.95 167.384 1095.29 170.52 1092.09 172.696C1088.89 174.872 1085.15 175.96 1080.86 175.96ZM1089.02 158.872C1090.94 158.872 1092.61 158.392 1094.01 157.432C1095.42 156.408 1096.51 155 1097.28 153.208C1098.11 151.416 1098.53 149.304 1098.53 146.872C1098.53 144.44 1097.82 142.456 1096.41 140.92C1095.07 139.384 1093.18 138.616 1090.75 138.616C1088.89 138.616 1087.23 139.128 1085.76 140.152C1084.35 141.112 1083.23 142.488 1082.4 144.28C1081.63 146.072 1081.25 148.184 1081.25 150.616C1081.25 153.048 1081.92 155.032 1083.26 156.568C1084.67 158.104 1086.59 158.872 1089.02 158.872ZM1094.11 175L1095.55 167.896L1099.1 148.696L1101.89 129.688L1103.33 122.488H1125.02L1114.56 175H1094.11ZM1149.04 194.584C1143.73 194.584 1138.86 194.04 1134.45 192.952C1130.1 191.864 1126.29 190.232 1123.02 188.056L1132.24 173.272C1134.35 174.872 1136.94 176.12 1140.02 177.016C1143.15 177.976 1146.29 178.456 1149.42 178.456C1153.65 178.456 1156.72 177.56 1158.64 175.768C1160.56 174.04 1161.84 171.608 1162.48 168.472L1163.82 161.752L1167.76 146.776L1171.12 130.456L1172.66 122.488H1193.3L1184.94 164.44C1182.83 175.128 1178.67 182.808 1172.46 187.48C1166.32 192.216 1158.51 194.584 1149.04 194.584ZM1149.52 172.12C1145.68 172.12 1142.03 171.224 1138.58 169.432C1135.12 167.64 1132.3 165.048 1130.13 161.656C1127.95 158.264 1126.86 154.2 1126.86 149.464C1126.86 145.56 1127.57 141.944 1128.98 138.616C1130.45 135.224 1132.46 132.248 1135.02 129.688C1137.65 127.128 1140.66 125.144 1144.05 123.736C1147.5 122.264 1151.18 121.528 1155.09 121.528C1158.99 121.528 1162.38 122.296 1165.26 123.832C1168.21 125.368 1170.32 127.992 1171.6 131.704C1172.88 135.352 1172.98 140.376 1171.89 146.776C1170.93 152.536 1169.42 157.304 1167.38 161.08C1165.33 164.792 1162.8 167.576 1159.79 169.432C1156.78 171.224 1153.36 172.12 1149.52 172.12ZM1156.43 155.128C1158.29 155.128 1159.92 154.744 1161.33 153.976C1162.74 153.144 1163.82 151.992 1164.59 150.52C1165.36 149.048 1165.74 147.32 1165.74 145.336C1165.74 143.352 1165.07 141.752 1163.73 140.536C1162.45 139.256 1160.59 138.616 1158.16 138.616C1156.3 138.616 1154.67 139.032 1153.26 139.864C1151.86 140.632 1150.74 141.752 1149.9 143.224C1149.14 144.696 1148.75 146.424 1148.75 148.408C1148.75 150.392 1149.42 152.024 1150.77 153.304C1152.18 154.52 1154.06 155.128 1156.43 155.128ZM1223.63 175.96C1217.87 175.96 1212.81 174.968 1208.46 172.984C1204.17 171 1200.81 168.184 1198.38 164.536C1195.95 160.888 1194.73 156.6 1194.73 151.672C1194.73 145.912 1196.07 140.76 1198.76 136.216C1201.45 131.672 1205.23 128.088 1210.09 125.464C1215.02 122.84 1220.75 121.528 1227.27 121.528C1232.91 121.528 1237.71 122.52 1241.67 124.504C1245.64 126.488 1248.68 129.208 1250.79 132.664C1252.91 136.12 1253.96 140.12 1253.96 144.664C1253.96 146.264 1253.83 147.832 1253.58 149.368C1253.39 150.904 1253.13 152.376 1252.81 153.784H1212.01L1214.03 143.32H1242.83L1233.8 146.104C1234.31 144.056 1234.28 142.328 1233.71 140.92C1233.19 139.448 1232.3 138.328 1231.02 137.56C1229.74 136.728 1228.17 136.312 1226.31 136.312C1223.69 136.312 1221.61 137.016 1220.07 138.424C1218.54 139.832 1217.42 141.656 1216.71 143.896C1216.07 146.136 1215.75 148.472 1215.75 150.904C1215.75 154.168 1216.62 156.504 1218.35 157.912C1220.14 159.256 1222.73 159.928 1226.12 159.928C1228.11 159.928 1230.09 159.64 1232.07 159.064C1234.06 158.424 1235.88 157.496 1237.55 156.28L1246.57 169.432C1242.99 171.864 1239.24 173.56 1235.34 174.52C1231.5 175.48 1227.59 175.96 1223.63 175.96ZM1254.58 175L1265.04 122.488H1285.49L1282.52 137.368L1280.5 133.144C1282.68 128.984 1285.68 126.008 1289.52 124.216C1293.43 122.424 1297.88 121.528 1302.87 121.528L1299.03 140.728C1298.13 140.6 1297.3 140.504 1296.53 140.44C1295.83 140.376 1295.09 140.344 1294.32 140.344C1290.74 140.344 1287.83 141.144 1285.59 142.744C1283.41 144.344 1281.94 147 1281.17 150.712L1276.28 175H1254.58Z" fill="white"/>
</svg>
